# xmcd
#
# Track frame offsets:
#	150
#	32250
#	52313
#	75151
#	94023
#	110939
#	131568
#	152623
#	173611
#	194123
#	212179
#	232367
#	255000
#	276434
#	298044
#	317214
#
# Disc length: 4425 seconds
#
# Revision: 0
# Processed by: cddbd v1.5.2PL0 Copyright (c) Steve Scherf et al.
# Submitted via: EasyCDDAExtractor 12.1.0.1
#
DISCID=ea114710
DTITLE=Various Artist - 박정철 송윤아의 Love 2 CD5
DYEAR=1900
DGENRE=
TTITLE0=김범수 - 하루
TTITLE1=한영애 - 마음 깊은 곳에 그대로를
TTITLE2=봄여름가을겨울 - 화해연가
TTITLE3=전인권 - 헛사랑
TTITLE4=박효신 - 먼곳에서
TTITLE5=김현철 - Believe What I Say
TTITLE6=포지션 - 마지막 약속
TTITLE7=티 - 바보
TTITLE8=푸른하늘 - 겨울바다
TTITLE9=이소라 - 그냥 이렇게
TTITLE10=시인과 촌장 - 사랑일기
TTITLE11=강인원 - 무용수에게
TTITLE12=박정운 - 오늘 같은 밤이면
TTITLE13=장필순 - 어느새
TTITLE14=변진섭 - 새들처럼
TTITLE15=한상원 - 물망초
EXTD=
EXTT0=
EXTT1=
EXTT2=
EXTT3=
EXTT4=
EXTT5=
EXTT6=
EXTT7=
EXTT8=
EXTT9=
EXTT10=
EXTT11=
EXTT12=
EXTT13=
EXTT14=
EXTT15=
PLAYORDER=
